<svg xmlns="http://www.w3.org/2000/svg" viewBox="0 0 500 500"><g id="freepik--background-complete--inject-9"><path d="M401.07,335.06l16.73-.29c5.53-.1,11-.16,16.49-.17l-.46.46,0-11.19.5.5-16.61-.07c-5.54,0-11.07-.13-16.61-.19l.25-.24Zm0,0-.25-11.19v-.25h.25c5.54-.06,11.07-.16,16.61-.19l16.61-.06h.5v.51l-.05,11.19v.45h-.45c-5.59,0-11.18-.07-16.73-.16Z" style="fill:#ebebeb"></path><rect x="419.6" y="337.98" width="33.22" height="11.19" transform="translate(872.42 687.14) rotate(180)" style="fill:#ebebeb"></rect><rect x="133.84" y="208.83" width="33.22" height="11.19" transform="translate(300.9 428.85) rotate(180)" style="fill:#ebebeb"></rect><path d="M152.37,234.13l16.73-.29c5.53-.09,11-.16,16.49-.16l-.45.45,0-11.19.5.5L169,223.37c-5.54,0-11.07-.12-16.61-.18l.25-.25Zm0,0-.25-11.19v-.24h.25c5.54-.06,11.07-.16,16.61-.18l16.61-.07h.5v.5L186,234.13v.45h-.45c-5.59,0-11.18-.07-16.73-.16Z" style="fill:#ebebeb"></path><path d="M170.83,220l16.73-.29c5.53-.09,11-.16,16.49-.16l-.46.45,0-11.19.5.5-16.61-.07c-5.54,0-11.08-.12-16.61-.18l.25-.25Zm0,0-.25-11.19v-.24h.25c5.53-.06,11.07-.16,16.61-.18l16.61-.07h.5v.5L204.5,220v.45h-.45c-5.59,0-11.19-.07-16.73-.16Z" style="fill:#ebebeb"></path><path d="M47.18,349.17l16.73-.29c5.53-.1,11-.16,16.49-.17l-.45.46,0-11.19.5.49-16.61-.06c-5.54,0-11.07-.13-16.61-.19l.25-.24Zm0,0L46.93,338v-.25h.25c5.54-.06,11.07-.16,16.61-.19l16.61-.06h.5V338l-.05,11.19v.45H80.4c-5.59,0-11.18-.07-16.73-.16Z" style="fill:#ebebeb"></path><path d="M65.71,65.49l16.73-.29c5.53-.1,11-.16,16.49-.17l-.45.46,0-11.19.5.5-16.61-.07c-5.54,0-11.07-.13-16.61-.19L66,54.3Zm0,0L65.46,54.3v-.25h.25c5.54-.06,11.07-.16,16.61-.19l16.61-.06h.5v.51l0,11.19v.45h-.45c-5.59,0-11.18-.07-16.73-.16Z" style="fill:#ebebeb"></path><rect x="47.18" y="68.41" width="33.22" height="11.19" transform="translate(127.58 148) rotate(180)" style="fill:#ebebeb"></rect><rect x="278.33" y="119.08" width="33.22" height="11.19" transform="translate(589.87 249.35) rotate(180)" style="fill:#ebebeb"></rect><path d="M259.79,144.38l16.73-.29c5.53-.09,11-.16,16.49-.16l-.45.45,0-11.19.49.5-16.61-.07c-5.53,0-11.07-.12-16.61-.18l.25-.25Zm0,0-.24-11.19V133h.25c5.54-.06,11.08-.16,16.61-.18l16.61-.07h.51v.5l0,11.19v.45H293c-5.59,0-11.18-.07-16.73-.16Z" style="fill:#ebebeb"></path><path d="M419.6,65.49l16.73-.29c5.53-.1,11-.16,16.49-.17l-.45.46-.05-11.19.5.5-16.61-.07c-5.54,0-11.07-.13-16.61-.19l.25-.24Zm0,0-.25-11.19v-.25h.25c5.54-.06,11.07-.16,16.61-.19l16.61-.06h.5v.51l-.05,11.19v.45h-.45c-5.59,0-11.18-.07-16.73-.16Z" style="fill:#ebebeb"></path><path d="M80.26,218.42v29.47L61.14,270.3a29.47,29.47,0,0,1,19.12-51.88Z" style="fill:#ebebeb"></path><path d="M115.73,250.89A29.47,29.47,0,0,1,67.14,273.3l19.12-22.41V221.42a29.45,29.45,0,0,1,29.47,29.47Z" style="fill:#ebebeb"></path><path d="M115.73,250.89A29.47,29.47,0,0,1,67.14,273.3l19.12-22.41V221.42a29.45,29.45,0,0,1,29.47,29.47Z" style="fill:#dbdbdb"></path><rect x="66.64" y="195.51" width="1" height="38.01" style="fill:#c7c7c7"></rect><path d="M67.14,196a3.17,3.17,0,1,1,3.16-3.16A3.16,3.16,0,0,1,67.14,196Zm0-5.33a2.17,2.17,0,1,0,2.16,2.17A2.17,2.17,0,0,0,67.14,190.68Z" style="fill:#c7c7c7"></path><rect x="75.21" y="190.18" width="29.53" height="1.33" style="fill:#c7c7c7"></rect><rect x="75.21" y="192.85" width="16.71" height="1.33" style="fill:#c7c7c7"></rect><path d="M400.82,134.25a35.75,35.75,0,1,1-35.35-41V129Z" style="fill:#ebebeb"></path><path d="M408.49,121.73a36.1,36.1,0,0,1-.39,5.24l-35.36-5.24V86a35.71,35.71,0,0,1,35.75,35.74Z" style="fill:#dbdbdb"></path><rect x="369.34" y="141.7" width="38.01" height="1" style="fill:#c7c7c7"></rect><path d="M410,145.37a3.17,3.17,0,1,1,3.17-3.17A3.17,3.17,0,0,1,410,145.37Zm0-5.33a2.17,2.17,0,1,0,2.17,2.16A2.16,2.16,0,0,0,410,140Z" style="fill:#c7c7c7"></path><rect x="419.67" y="140.2" width="29.53" height="1.33" style="fill:#c7c7c7"></rect><rect x="419.67" y="142.87" width="16.71" height="1.33" style="fill:#c7c7c7"></rect></g><g id="freepik--Shadow--inject-9"><ellipse cx="250" cy="422.48" rx="196.9" ry="51.64" style="fill:#ebebeb"></ellipse></g><g id="freepik--Plant--inject-9"><path d="M415.46,316.21a257.8,257.8,0,0,0-.38-27.38,349.1,349.1,0,0,0-8.57-55.77c-2.4-10.32-5.34-20.47-8.41-30.61-.09-.3-.58-.21-.5.1,9.49,35.73,17.28,72.61,16.74,109.75-.15,10.4-1.35,20.61-2.34,30.93,0,.28.43.39.49.11C414.45,334.5,415.09,325.24,415.46,316.21Z" style="fill:#0BBF64"></path><path d="M397.6,202.55S383.23,239,386.45,247.62,396.3,258,396.3,258s-8.79,12.56-2.65,24.34,19.8,11.22,20.71,24.57C414.36,306.93,415.12,251.1,397.6,202.55Z" style="fill:#0BBF64"></path><path d="M412.8,283.88a.35.35,0,0,0,0-.2,334,334,0,0,0-14-73.4c0-.07-.14,0-.12,0,2.85,10.67,5.39,21.4,7.55,32.19a15.88,15.88,0,0,0-6.86-3.82c-.05,0-.07,0,0,.07a18.22,18.22,0,0,1,7.09,4.73q.63,3.18,1.22,6.35c-3.21-3.59-7.67-5.37-12.13-7.06-.06,0-.09.07,0,.1,4.64,1.89,9.27,4.32,12.41,8.32q1.65,9.09,2.89,18.23a17.42,17.42,0,0,0-8.57-4.91c-.1,0-.16.12-.06.15a18.11,18.11,0,0,1,8.7,5.57.1.1,0,0,0,.05,0q.44,3.21.81,6.44a22,22,0,0,0-6-3.62c-.06,0-.09.06,0,.09a20.55,20.55,0,0,1,6,4l.08,0c.24,2,.48,4.09.68,6.14a29.11,29.11,0,0,0-12.19-8.71c-.09,0-.14.11-.05.15a31.67,31.67,0,0,1,12,9.24.28.28,0,0,0,.31.1q.46,4.71.82,9.43s.07,0,.07,0C413.29,290.32,413.06,287.1,412.8,283.88Z" style="fill:#263238"></path><path d="M401.25,235.05a18,18,0,0,0-8.64-2.69c-.07,0-.07.1,0,.11a34.11,34.11,0,0,1,8.53,2.79A.12.12,0,0,0,401.25,235.05Z" style="fill:#263238"></path><path d="M403,273.68a18.34,18.34,0,0,0-6.48-2.22c-.08,0-.08.11,0,.13a24,24,0,0,1,6.42,2.25C403,273.88,403.08,273.73,403,273.68Z" style="fill:#263238"></path><path d="M453.25,248.21a97.74,97.74,0,0,0-16.64,14.55,59.82,59.82,0,0,0-11.67,19.79,147.82,147.82,0,0,0-8.69,47.32,115,115,0,0,0,2.56,26.62.25.25,0,0,0,.5-.09,149.1,149.1,0,0,1,.26-46.53c2.47-15.09,6.35-31.52,15.94-43.78,5.23-6.68,11.74-11.94,18.18-17.37C454,248.44,453.6,248,453.25,248.21Z" style="fill:#0BBF64"></path><path d="M418.36,319a89.54,89.54,0,0,1,12.13-15.51c7.19-7.19,13.25-12.3,14.18-17.05s-7.2-8.26-7.2-8.26,9.95,1.79,12.68-2.39,4-28.36,4-28.36-18.1,12.92-26.54,31S418.36,319,418.36,319Z" style="fill:#0BBF64"></path><path d="M447.92,253.64c-7.62,7.48-15.28,15.45-19.77,25.28a96.33,96.33,0,0,0-4,10.43h0c-.23.72-.46,1.43-.68,2.15a.56.56,0,0,0,0,.12A207.31,207.31,0,0,0,418.28,314a0,0,0,0,0,.08,0c.78-3.77,1.64-7.58,2.6-11.38l.11,0a15.88,15.88,0,0,1,4.75-1.2c.1,0,.1-.2,0-.19a17.4,17.4,0,0,0-4.7.85c.87-3.42,1.83-6.84,2.9-10.21a50.42,50.42,0,0,1,10.74-1.4s0-.06,0-.06a40.25,40.25,0,0,0-10.56.9c.19-.58.38-1.16.58-1.73a54,54,0,0,1,7.14-1.21s0-.08,0-.08a34.27,34.27,0,0,0-7,.85c1-2.91,2-5.79,3.23-8.59a52.51,52.51,0,0,1,3.42-6.63,43.77,43.77,0,0,1,5.8-1c.05,0,.05-.09,0-.09a15.76,15.76,0,0,0-5.42.53c1-1.54,2-3,3-4.5h0c4.06-.9,8.17-1.73,12.33-1,.07,0,.09-.11,0-.13-3.95-1-7.88-.44-11.81.34.43-.57.87-1.14,1.31-1.7a27,27,0,0,1,7.59-1.19c.05,0,.06-.08,0-.08a19.88,19.88,0,0,0-7.08.62c3.36-4.17,7.07-8.08,10.73-12C448.23,253.56,448.1,253.46,447.92,253.64Z" style="fill:#263238"></path><path d="M447.72,270.13a16.72,16.72,0,0,0-3.6-.13.13.13,0,0,0,0,.26c1.19,0,2.38-.06,3.57,0A.07.07,0,1,0,447.72,270.13Z" style="fill:#263238"></path><path d="M434.69,293.59a16.36,16.36,0,0,0-5.58,1.12,0,0,0,0,0,0,.08c1.85-.44,3.71-.62,5.57-.92C434.85,293.84,434.85,293.59,434.69,293.59Z" style="fill:#263238"></path><path d="M430.78,285.49a11.12,11.12,0,0,0-2.37.21.07.07,0,0,0,0,.14,12.51,12.51,0,0,0,2.37-.11C430.93,285.7,430.92,285.49,430.78,285.49Z" style="fill:#263238"></path><path d="M365.29,273.88a82.16,82.16,0,0,1,16.83,7.93,50.39,50.39,0,0,1,14,13.32,124.67,124.67,0,0,1,18,36.29,97.45,97.45,0,0,1,4.08,22.13.22.22,0,0,1-.43,0,125.57,125.57,0,0,0-11-37.59c-5.49-11.65-12.42-24-23-31.75-5.78-4.2-12.26-6.95-18.73-9.85C364.71,274.25,365,273.77,365.29,273.88Z" style="fill:#0BBF64"></path><path d="M409.89,323.11a75.15,75.15,0,0,0-13.4-9.74c-7.48-4.16-13.57-6.89-15.42-10.53S385,294.5,385,294.5s-7.64,3.74-10.81,1-9.82-22-9.82-22,17.63,6.28,28.65,19S409.89,323.11,409.89,323.11Z" style="fill:#0BBF64"></path><path d="M409,319.14c-8.83-16.56-20.6-31.54-36.73-41.43h0A81.55,81.55,0,0,1,384,287a18.72,18.72,0,0,0-9.48,2c-.07,0,0,.12.05.1a26,26,0,0,1,9.75-1.65.18.18,0,0,0,.11,0c.58.54,1.14,1.09,1.7,1.65a29.84,29.84,0,0,0-5.07.67,0,0,0,0,0,0,.07,26.66,26.66,0,0,1,5.35-.44,111.74,111.74,0,0,1,8.32,9.45,8.45,8.45,0,0,0-3.54.26.07.07,0,1,0,0,.13,19.12,19.12,0,0,1,3.78-.05c.49.61,1,1.22,1.45,1.85a34.24,34.24,0,0,0-10.71,1,0,0,0,1,0,0,.08,43.1,43.1,0,0,1,11-.72c.45.6.88,1.22,1.32,1.82a22.88,22.88,0,0,0-6.37.73.07.07,0,0,0,0,.13,24.38,24.38,0,0,1,6.6-.52q2.85,3.93,5.46,8a6,6,0,0,0-2.79.17c-.05,0,0,.09,0,.08a12.28,12.28,0,0,1,3,.14c1.57,2.45,3.09,4.92,4.54,7.4C408.74,319.51,409.08,319.36,409,319.14Z" style="fill:#263238"></path><path d="M395.24,305.4a13.49,13.49,0,0,0-5.12.63,0,0,0,1,0,0,.07,39.7,39.7,0,0,1,5.1-.52A.09.09,0,0,0,395.24,305.4Z" style="fill:#263238"></path><path d="M379.86,285.22a8.57,8.57,0,0,0-2.37.14c-.09,0-.06.15,0,.14.78-.09,1.54-.06,2.32-.08A.1.1,0,0,0,379.86,285.22Z" style="fill:#263238"></path><polygon points="432.64 377.87 392.82 377.87 398.5 336.28 399.95 325.62 425.51 325.62 426.96 336.28 432.64 377.87" style="fill:#455a64"></polygon><polygon points="426.96 336.28 398.5 336.28 399.95 325.62 425.51 325.62 426.96 336.28" style="fill:#263238"></polygon><rect x="396.29" y="321.92" width="32.87" height="9.03" style="fill:#455a64"></rect></g><g id="freepik--Floor--inject-9"><polygon points="45.82 377.87 96.86 377.63 147.91 377.54 250 377.37 352.09 377.54 403.14 377.63 454.18 377.87 403.14 378.11 352.09 378.2 250 378.37 147.91 378.2 96.86 378.11 45.82 377.87" style="fill:#263238"></polygon></g><g id="freepik--Chart--inject-9"><path d="M243,244.78v50.5L115.52,325c-20.4-9-30.19-19.41-30.13-29.73.09-15.58,22.63-30.94,65-40.8C178.56,247.86,208.22,244.78,243,244.78Z" style="fill:#0BBF64"></path><g style="opacity:0.4"><path d="M243,244.78v50.5L115.52,325c-20.4-9-30.19-19.41-30.13-29.73.09-15.58,22.63-30.94,65-40.8C178.56,247.86,208.22,244.78,243,244.78Z" style="fill:#fff"></path></g><path d="M115.52,325V409.3c-20.4-9-30.19-19.41-30.13-29.74V295.22C85.33,305.54,95.12,316,115.52,325Z" style="fill:#0BBF64"></path><polygon points="243.04 295.25 243.04 379.59 115.52 409.27 115.52 324.93 243.04 295.25" style="fill:#0BBF64"></polygon><g style="opacity:0.1"><polygon points="243.04 295.25 243.04 379.59 115.52 409.27 115.52 324.93 243.04 295.25"></polygon></g><path d="M243,333.08l-48.71,48c-33.12-3.45-58.34-9.32-78.81-18.35Z" style="fill:#455a64"></path><path d="M194.33,381.1v74.34C161.21,452,136,446.12,115.52,437.1V362.75C136,371.78,161.21,377.65,194.33,381.1Z" style="fill:#263238"></path><polygon points="243.04 333.08 243.04 407.42 194.33 455.44 194.33 381.1 243.04 333.08" style="fill:#37474f"></polygon><path d="M414.61,354c0,27.88-70.58,50.49-157.66,50.49A450.84,450.84,0,0,1,208.24,402L257,354Z" style="fill:#0BBF64"></path><path d="M414.61,354v54.34c0,27.89-70.58,50.49-157.66,50.49a448.3,448.3,0,0,1-48.71-2.47V402A450.84,450.84,0,0,0,257,404.5C344,404.5,414.61,381.89,414.61,354Z" style="fill:#0BBF64"></path><g style="opacity:0.1"><path d="M414.61,354v54.34c0,27.89-70.58,50.49-157.66,50.49a448.3,448.3,0,0,1-48.71-2.47V402A450.84,450.84,0,0,0,257,404.5C344,404.5,414.61,381.89,414.61,354Z"></path></g><path d="M243,192c87.08,0,157.65,22.61,157.65,50.5H243Z" style="fill:#37474f"></path><rect x="243.04" y="242.54" width="157.65" height="178.43" style="fill:#263238"></rect></g><g id="freepik--Icons--inject-9"><path d="M301.85,207.69l.27.06a2.56,2.56,0,0,1,2,2.47,2.59,2.59,0,0,1-4.27,2,2.42,2.42,0,0,1-.82-2.63,2.5,2.5,0,0,1,2.08-1.87l.13,0Z" style="fill:#0BBF64"></path><path d="M301.82,233.55v-4.27c0-.22,0-.22-.21-.22s-.31,0-.31.31v8.34a1.37,1.37,0,0,1-.54,1.13.77.77,0,0,1-.58.21,1.93,1.93,0,0,0-.34,0c-.51.08-1-.53-1.08-1,0-.22,0-.44,0-.66v-8a.75.75,0,0,1,0-.15c0-.12-.05-.17-.17-.16h-2.85c-.22,0-.22,0-.16-.22l2.49-8.67c.28-1,.56-2,.85-3,.05-.17,0-.18-.14-.18-.42,0-.34-.06-.45.33q-.93,3.22-1.85,6.46a1.06,1.06,0,0,1-.77.83,1.18,1.18,0,0,1-1.16-.35,1,1,0,0,1-.2-1c.22-.78.44-1.55.67-2.33.47-1.65.94-3.32,1.43-5a3.57,3.57,0,0,1,1.72-2.21,2.92,2.92,0,0,1,1.41-.38h3.84a3.22,3.22,0,0,1,2.93,1.76,8,8,0,0,1,.63,1.75l1.77,6.18a1.83,1.83,0,0,1,0,.9.89.89,0,0,1-.66.62,1.08,1.08,0,0,1-1.43-.78c-.62-2.22-1.27-4.44-1.9-6.66a.18.18,0,0,0-.2-.15c-.39,0-.39,0-.29.36L307,227c.18.62.36,1.24.53,1.85.06.21.06.21-.15.21h-2.83c-.21,0-.21,0-.21.22v8.56a1.23,1.23,0,0,1-.69,1.14.59.59,0,0,1-.29.07h-.32a1.23,1.23,0,0,1-1.25-1.25Z" style="fill:#0BBF64"></path><path d="M301.85,207.69l.27.06a2.56,2.56,0,0,1,2,2.47,2.59,2.59,0,0,1-4.27,2,2.42,2.42,0,0,1-.82-2.63,2.5,2.5,0,0,1,2.08-1.87l.13,0Z" style="fill:#fff;opacity:0.7000000000000001"></path><path d="M301.82,233.55v-4.27c0-.22,0-.22-.21-.22s-.31,0-.31.31v8.34a1.37,1.37,0,0,1-.54,1.13.77.77,0,0,1-.58.21,1.93,1.93,0,0,0-.34,0c-.51.08-1-.53-1.08-1,0-.22,0-.44,0-.66v-8a.75.75,0,0,1,0-.15c0-.12-.05-.17-.17-.16h-2.85c-.22,0-.22,0-.16-.22l2.49-8.67c.28-1,.56-2,.85-3,.05-.17,0-.18-.14-.18-.42,0-.34-.06-.45.33q-.93,3.22-1.85,6.46a1.06,1.06,0,0,1-.77.83,1.18,1.18,0,0,1-1.16-.35,1,1,0,0,1-.2-1c.22-.78.44-1.55.67-2.33.47-1.65.94-3.32,1.43-5a3.57,3.57,0,0,1,1.72-2.21,2.92,2.92,0,0,1,1.41-.38h3.84a3.22,3.22,0,0,1,2.93,1.76,8,8,0,0,1,.63,1.75l1.77,6.18a1.83,1.83,0,0,1,0,.9.89.89,0,0,1-.66.62,1.08,1.08,0,0,1-1.43-.78c-.62-2.22-1.27-4.44-1.9-6.66a.18.18,0,0,0-.2-.15c-.39,0-.39,0-.29.36L307,227c.18.62.36,1.24.53,1.85.06.21.06.21-.15.21h-2.83c-.21,0-.21,0-.21.22v8.56a1.23,1.23,0,0,1-.69,1.14.59.59,0,0,1-.29.07h-.32a1.23,1.23,0,0,1-1.25-1.25Z" style="fill:#fff;opacity:0.7000000000000001"></path><path d="M347.64,198.83l.27.06a2.56,2.56,0,0,1,2,2.48,2.44,2.44,0,0,1-1.5,2.37,2.48,2.48,0,0,1-2.77-.37,2.43,2.43,0,0,1-.82-2.64,2.5,2.5,0,0,1,2.08-1.86l.13,0Z" style="fill:#0BBF64"></path><path d="M347.61,224.69v-4.27c0-.21,0-.21-.21-.21s-.31,0-.31.3v8.35a1.37,1.37,0,0,1-.54,1.13.77.77,0,0,1-.58.21,1.29,1.29,0,0,0-.34,0c-.51.07-1.05-.53-1.08-1,0-.22,0-.44,0-.66v-8a.75.75,0,0,1,0-.15c0-.13,0-.17-.17-.16h-2.85c-.22,0-.22,0-.16-.23l2.49-8.66c.28-1,.56-2,.85-3,.05-.18,0-.19-.14-.18-.42,0-.34-.06-.45.32-.62,2.16-1.24,4.31-1.85,6.47a1,1,0,0,1-.77.82,1.15,1.15,0,0,1-1.16-.34,1,1,0,0,1-.2-1c.22-.77.44-1.55.67-2.32.47-1.66.94-3.32,1.44-5a3.52,3.52,0,0,1,1.71-2.21,2.92,2.92,0,0,1,1.41-.38h3.84a3.2,3.2,0,0,1,2.93,1.76,7.61,7.61,0,0,1,.63,1.75l1.77,6.18a2,2,0,0,1,0,.9.9.9,0,0,1-.67.61,1.07,1.07,0,0,1-1.43-.78c-.62-2.22-1.27-4.43-1.9-6.65a.18.18,0,0,0-.2-.16c-.39,0-.39,0-.29.37l2.76,9.61c.18.62.36,1.23.53,1.85.06.2.06.21-.15.21h-2.83c-.21,0-.21,0-.21.21V229a1.22,1.22,0,0,1-.69,1.15.59.59,0,0,1-.29.07h-.32a1.24,1.24,0,0,1-1.25-1.25Z" style="fill:#0BBF64"></path><path d="M347.64,198.83l.27.06a2.56,2.56,0,0,1,2,2.48,2.44,2.44,0,0,1-1.5,2.37,2.48,2.48,0,0,1-2.77-.37,2.43,2.43,0,0,1-.82-2.64,2.5,2.5,0,0,1,2.08-1.86l.13,0Z" style="fill:#fff;opacity:0.7000000000000001"></path><path d="M347.61,224.69v-4.27c0-.21,0-.21-.21-.21s-.31,0-.31.3v8.35a1.37,1.37,0,0,1-.54,1.13.77.77,0,0,1-.58.21,1.29,1.29,0,0,0-.34,0c-.51.07-1.05-.53-1.08-1,0-.22,0-.44,0-.66v-8a.75.75,0,0,1,0-.15c0-.13,0-.17-.17-.16h-2.85c-.22,0-.22,0-.16-.23l2.49-8.66c.28-1,.56-2,.85-3,.05-.18,0-.19-.14-.18-.42,0-.34-.06-.45.32-.62,2.16-1.24,4.31-1.85,6.47a1,1,0,0,1-.77.82,1.15,1.15,0,0,1-1.16-.34,1,1,0,0,1-.2-1c.22-.77.44-1.55.67-2.32.47-1.66.94-3.32,1.44-5a3.52,3.52,0,0,1,1.71-2.21,2.92,2.92,0,0,1,1.41-.38h3.84a3.2,3.2,0,0,1,2.93,1.76,7.61,7.61,0,0,1,.63,1.75l1.77,6.18a2,2,0,0,1,0,.9.9.9,0,0,1-.67.61,1.07,1.07,0,0,1-1.43-.78c-.62-2.22-1.27-4.43-1.9-6.65a.18.18,0,0,0-.2-.16c-.39,0-.39,0-.29.37l2.76,9.61c.18.62.36,1.23.53,1.85.06.2.06.21-.15.21h-2.83c-.21,0-.21,0-.21.21V229a1.22,1.22,0,0,1-.69,1.15.59.59,0,0,1-.29.07h-.32a1.24,1.24,0,0,1-1.25-1.25Z" style="fill:#fff;opacity:0.7000000000000001"></path><path d="M252.56,177.45l.27.07a2.55,2.55,0,0,1,2,2.47,2.44,2.44,0,0,1-1.5,2.37,2.48,2.48,0,0,1-2.77-.37,2.43,2.43,0,0,1-.82-2.64,2.5,2.5,0,0,1,2.08-1.86l.13,0Z" style="fill:#0BBF64"></path><path d="M252.53,203.32V199c0-.21,0-.21-.21-.21s-.31,0-.31.3v8.35a1.37,1.37,0,0,1-.54,1.13.77.77,0,0,1-.58.21,1.29,1.29,0,0,0-.34,0c-.51.08-1.05-.53-1.08-1,0-.22,0-.44,0-.66v-8a.75.75,0,0,1,0-.15c0-.12,0-.17-.17-.16h-2.85c-.22,0-.22,0-.16-.23l2.49-8.66c.28-1,.56-2,.85-3,0-.17,0-.18-.14-.18-.42,0-.34-.06-.45.33q-.93,3.23-1.85,6.46a1,1,0,0,1-.77.82,1.15,1.15,0,0,1-1.16-.34,1,1,0,0,1-.2-1c.22-.78.44-1.55.67-2.33.47-1.66.94-3.32,1.43-5a3.57,3.57,0,0,1,1.72-2.21,2.92,2.92,0,0,1,1.41-.38h3.84a3.2,3.2,0,0,1,2.93,1.76,7.78,7.78,0,0,1,.63,1.75l1.77,6.18a2,2,0,0,1,0,.9.92.92,0,0,1-.67.62,1.08,1.08,0,0,1-1.43-.78c-.62-2.23-1.27-4.44-1.9-6.66a.19.19,0,0,0-.2-.16c-.39,0-.39,0-.29.37l2.76,9.61c.18.62.36,1.23.53,1.85.06.21.06.21-.15.21h-2.83c-.21,0-.21,0-.21.22v8.56a1.24,1.24,0,0,1-.69,1.14.59.59,0,0,1-.29.07h-.32a1.23,1.23,0,0,1-1.25-1.25Z" style="fill:#0BBF64"></path><path d="M252.56,177.45l.27.07a2.55,2.55,0,0,1,2,2.47,2.44,2.44,0,0,1-1.5,2.37,2.48,2.48,0,0,1-2.77-.37,2.43,2.43,0,0,1-.82-2.64,2.5,2.5,0,0,1,2.08-1.86l.13,0Z" style="fill:#fff;opacity:0.7000000000000001"></path><path d="M252.53,203.32V199c0-.21,0-.21-.21-.21s-.31,0-.31.3v8.35a1.37,1.37,0,0,1-.54,1.13.77.77,0,0,1-.58.21,1.29,1.29,0,0,0-.34,0c-.51.08-1.05-.53-1.08-1,0-.22,0-.44,0-.66v-8a.75.75,0,0,1,0-.15c0-.12,0-.17-.17-.16h-2.85c-.22,0-.22,0-.16-.23l2.49-8.66c.28-1,.56-2,.85-3,0-.17,0-.18-.14-.18-.42,0-.34-.06-.45.33q-.93,3.23-1.85,6.46a1,1,0,0,1-.77.82,1.15,1.15,0,0,1-1.16-.34,1,1,0,0,1-.2-1c.22-.78.44-1.55.67-2.33.47-1.66.94-3.32,1.43-5a3.57,3.57,0,0,1,1.72-2.21,2.92,2.92,0,0,1,1.41-.38h3.84a3.2,3.2,0,0,1,2.93,1.76,7.78,7.78,0,0,1,.63,1.75l1.77,6.18a2,2,0,0,1,0,.9.92.92,0,0,1-.67.62,1.08,1.08,0,0,1-1.43-.78c-.62-2.23-1.27-4.44-1.9-6.66a.19.19,0,0,0-.2-.16c-.39,0-.39,0-.29.37l2.76,9.61c.18.62.36,1.23.53,1.85.06.21.06.21-.15.21h-2.83c-.21,0-.21,0-.21.22v8.56a1.24,1.24,0,0,1-.69,1.14.59.59,0,0,1-.29.07h-.32a1.23,1.23,0,0,1-1.25-1.25Z" style="fill:#fff;opacity:0.7000000000000001"></path><path d="M127.55,249.86l.27.06a2.56,2.56,0,0,1,2,2.47,2.59,2.59,0,0,1-4.27,2,2.41,2.41,0,0,1-.82-2.63,2.5,2.5,0,0,1,2.08-1.87l.13,0Z" style="fill:#0BBF64"></path><path d="M127.52,275.72v-4.27c0-.22,0-.22-.21-.22s-.31,0-.31.31v8.34a1.37,1.37,0,0,1-.54,1.13.74.74,0,0,1-.58.21,1.93,1.93,0,0,0-.34,0c-.51.08-1.05-.52-1.08-1,0-.22,0-.44,0-.66v-8a.75.75,0,0,1,0-.15c0-.12,0-.17-.17-.16h-2.85c-.22,0-.23,0-.16-.22l2.49-8.67c.28-1,.56-2,.85-3,.05-.17,0-.18-.14-.18-.42,0-.34-.06-.45.33-.62,2.15-1.24,4.31-1.85,6.46a1.06,1.06,0,0,1-.77.83,1.15,1.15,0,0,1-1.16-.35,1,1,0,0,1-.2-1c.22-.78.44-1.55.67-2.33.47-1.65.94-3.31,1.43-5a3.57,3.57,0,0,1,1.72-2.21,3,3,0,0,1,1.41-.38h3.84a3.22,3.22,0,0,1,2.93,1.76,7.86,7.86,0,0,1,.63,1.76l1.77,6.18a1.79,1.79,0,0,1,0,.89.87.87,0,0,1-.66.62,1.08,1.08,0,0,1-1.43-.78c-.62-2.22-1.27-4.44-1.9-6.66a.18.18,0,0,0-.2-.15c-.39,0-.39,0-.29.36l2.76,9.61c.18.62.36,1.24.53,1.86.06.2.06.2-.15.2h-2.83c-.21,0-.21,0-.21.22V280a1.22,1.22,0,0,1-.69,1.14.5.5,0,0,1-.29.07h-.32a1.22,1.22,0,0,1-1.25-1.24Z" style="fill:#0BBF64"></path><path d="M127.55,249.86l.27.06a2.56,2.56,0,0,1,2,2.47,2.59,2.59,0,0,1-4.27,2,2.41,2.41,0,0,1-.82-2.63,2.5,2.5,0,0,1,2.08-1.87l.13,0Z" style="fill:#fff;opacity:0.7000000000000001"></path><path d="M127.52,275.72v-4.27c0-.22,0-.22-.21-.22s-.31,0-.31.31v8.34a1.37,1.37,0,0,1-.54,1.13.74.74,0,0,1-.58.21,1.93,1.93,0,0,0-.34,0c-.51.08-1.05-.52-1.08-1,0-.22,0-.44,0-.66v-8a.75.75,0,0,1,0-.15c0-.12,0-.17-.17-.16h-2.85c-.22,0-.23,0-.16-.22l2.49-8.67c.28-1,.56-2,.85-3,.05-.17,0-.18-.14-.18-.42,0-.34-.06-.45.33-.62,2.15-1.24,4.31-1.85,6.46a1.06,1.06,0,0,1-.77.83,1.15,1.15,0,0,1-1.16-.35,1,1,0,0,1-.2-1c.22-.78.44-1.55.67-2.33.47-1.65.94-3.31,1.43-5a3.57,3.57,0,0,1,1.72-2.21,3,3,0,0,1,1.41-.38h3.84a3.22,3.22,0,0,1,2.93,1.76,7.86,7.86,0,0,1,.63,1.76l1.77,6.18a1.79,1.79,0,0,1,0,.89.87.87,0,0,1-.66.62,1.08,1.08,0,0,1-1.43-.78c-.62-2.22-1.27-4.44-1.9-6.66a.18.18,0,0,0-.2-.15c-.39,0-.39,0-.29.36l2.76,9.61c.18.62.36,1.24.53,1.86.06.2.06.2-.15.2h-2.83c-.21,0-.21,0-.21.22V280a1.22,1.22,0,0,1-.69,1.14.5.5,0,0,1-.29.07h-.32a1.22,1.22,0,0,1-1.25-1.24Z" style="fill:#fff;opacity:0.7000000000000001"></path><path d="M160,276l.27.06a2.56,2.56,0,0,1,2,2.48,2.45,2.45,0,0,1-1.5,2.37,2.48,2.48,0,0,1-2.77-.37,2.43,2.43,0,0,1-.82-2.64,2.49,2.49,0,0,1,2.08-1.86l.13,0Z" style="fill:#0BBF64"></path><path d="M160,301.89v-4.27c0-.21,0-.21-.21-.21s-.31,0-.31.3v8.35a1.4,1.4,0,0,1-.54,1.13.77.77,0,0,1-.58.21,1.29,1.29,0,0,0-.34,0c-.51.07-1.05-.53-1.08-1,0-.21,0-.43,0-.65,0-2.67,0-5.34,0-8a.85.85,0,0,1,0-.16c0-.12-.05-.16-.17-.15h-2.85c-.22,0-.23,0-.16-.23l2.49-8.67c.28-1,.56-2,.85-2.95,0-.18,0-.19-.14-.19-.42,0-.34-.05-.45.33-.62,2.16-1.24,4.31-1.85,6.47a1,1,0,0,1-.77.82,1.15,1.15,0,0,1-1.16-.34,1,1,0,0,1-.2-1c.22-.77.44-1.55.67-2.32.47-1.66.94-3.32,1.43-5a3.59,3.59,0,0,1,1.72-2.22,3,3,0,0,1,1.41-.37h3.84a3.21,3.21,0,0,1,2.93,1.76,8.11,8.11,0,0,1,.63,1.75l1.77,6.18a1.83,1.83,0,0,1,0,.9c-.06.33-.35.5-.66.61a1.09,1.09,0,0,1-1.44-.78c-.61-2.22-1.26-4.43-1.89-6.65a.19.19,0,0,0-.21-.16c-.38,0-.38,0-.28.37l2.76,9.61c.18.61.36,1.23.53,1.85.06.2.06.21-.15.21h-2.83c-.21,0-.21,0-.21.21v8.56a1.24,1.24,0,0,1-.69,1.15.73.73,0,0,1-.29.07h-.33a1.22,1.22,0,0,1-1.24-1.24Z" style="fill:#0BBF64"></path><path d="M160,276l.27.06a2.56,2.56,0,0,1,2,2.48,2.45,2.45,0,0,1-1.5,2.37,2.48,2.48,0,0,1-2.77-.37,2.43,2.43,0,0,1-.82-2.64,2.49,2.49,0,0,1,2.08-1.86l.13,0Z" style="fill:#fff;opacity:0.7000000000000001"></path><path d="M160,301.89v-4.27c0-.21,0-.21-.21-.21s-.31,0-.31.3v8.35a1.4,1.4,0,0,1-.54,1.13.77.77,0,0,1-.58.21,1.29,1.29,0,0,0-.34,0c-.51.07-1.05-.53-1.08-1,0-.21,0-.43,0-.65,0-2.67,0-5.34,0-8a.85.85,0,0,1,0-.16c0-.12-.05-.16-.17-.15h-2.85c-.22,0-.23,0-.16-.23l2.49-8.67c.28-1,.56-2,.85-2.95,0-.18,0-.19-.14-.19-.42,0-.34-.05-.45.33-.62,2.16-1.24,4.31-1.85,6.47a1,1,0,0,1-.77.82,1.15,1.15,0,0,1-1.16-.34,1,1,0,0,1-.2-1c.22-.77.44-1.55.67-2.32.47-1.66.94-3.32,1.43-5a3.59,3.59,0,0,1,1.72-2.22,3,3,0,0,1,1.41-.37h3.84a3.21,3.21,0,0,1,2.93,1.76,8.11,8.11,0,0,1,.63,1.75l1.77,6.18a1.83,1.83,0,0,1,0,.9c-.06.33-.35.5-.66.61a1.09,1.09,0,0,1-1.44-.78c-.61-2.22-1.26-4.43-1.89-6.65a.19.19,0,0,0-.21-.16c-.38,0-.38,0-.28.37l2.76,9.61c.18.61.36,1.23.53,1.85.06.2.06.21-.15.21h-2.83c-.21,0-.21,0-.21.21v8.56a1.24,1.24,0,0,1-.69,1.15.73.73,0,0,1-.29.07h-.33a1.22,1.22,0,0,1-1.24-1.24Z" style="fill:#fff;opacity:0.7000000000000001"></path><path d="M181,247.76l.27.06a2.56,2.56,0,0,1,2,2.48,2.59,2.59,0,0,1-4.27,2,2.41,2.41,0,0,1-.82-2.63,2.52,2.52,0,0,1,2.08-1.87l.13,0Z" style="fill:#0BBF64"></path><path d="M181,273.62v-4.27c0-.21,0-.21-.21-.21s-.31,0-.31.3v8.34a1.37,1.37,0,0,1-.54,1.13.75.75,0,0,1-.59.21,1.22,1.22,0,0,0-.33,0c-.51.07-1.05-.53-1.08-1,0-.22,0-.44,0-.65q0-4,0-8a.86.86,0,0,1,0-.16c0-.12-.05-.16-.17-.15h-2.85c-.22,0-.23,0-.16-.23l2.49-8.67.84-2.95c0-.18,0-.19-.13-.19-.42,0-.34-.06-.45.33q-.93,3.24-1.85,6.46a1.06,1.06,0,0,1-.77.83,1.13,1.13,0,0,1-1.16-.35,1,1,0,0,1-.2-1c.22-.77.44-1.55.67-2.32.47-1.66.94-3.32,1.43-5a3.59,3.59,0,0,1,1.72-2.22,3,3,0,0,1,1.41-.37q1.92,0,3.84,0a3.22,3.22,0,0,1,2.93,1.75,7.84,7.84,0,0,1,.62,1.76q.9,3.09,1.78,6.18a1.79,1.79,0,0,1,0,.89.87.87,0,0,1-.66.62,1.09,1.09,0,0,1-1.44-.78c-.61-2.22-1.26-4.43-1.89-6.65a.19.19,0,0,0-.21-.16c-.38,0-.38,0-.28.37l2.76,9.6c.18.62.35,1.24.53,1.86.06.2.06.21-.15.21h-2.83c-.21,0-.21,0-.21.21v8.56a1.22,1.22,0,0,1-.69,1.14.5.5,0,0,1-.29.07h-.33a1.22,1.22,0,0,1-1.24-1.24Z" style="fill:#0BBF64"></path><path d="M181,247.76l.27.06a2.56,2.56,0,0,1,2,2.48,2.59,2.59,0,0,1-4.27,2,2.41,2.41,0,0,1-.82-2.63,2.52,2.52,0,0,1,2.08-1.87l.13,0Z" style="fill:#fff;opacity:0.7000000000000001"></path><path d="M181,273.62v-4.27c0-.21,0-.21-.21-.21s-.31,0-.31.3v8.34a1.37,1.37,0,0,1-.54,1.13.75.75,0,0,1-.59.21,1.22,1.22,0,0,0-.33,0c-.51.07-1.05-.53-1.08-1,0-.22,0-.44,0-.65q0-4,0-8a.86.86,0,0,1,0-.16c0-.12-.05-.16-.17-.15h-2.85c-.22,0-.23,0-.16-.23l2.49-8.67.84-2.95c0-.18,0-.19-.13-.19-.42,0-.34-.06-.45.33q-.93,3.24-1.85,6.46a1.06,1.06,0,0,1-.77.83,1.13,1.13,0,0,1-1.16-.35,1,1,0,0,1-.2-1c.22-.77.44-1.55.67-2.32.47-1.66.94-3.32,1.43-5a3.59,3.59,0,0,1,1.72-2.22,3,3,0,0,1,1.41-.37q1.92,0,3.84,0a3.22,3.22,0,0,1,2.93,1.75,7.84,7.84,0,0,1,.62,1.76q.9,3.09,1.78,6.18a1.79,1.79,0,0,1,0,.89.87.87,0,0,1-.66.62,1.09,1.09,0,0,1-1.44-.78c-.61-2.22-1.26-4.43-1.89-6.65a.19.19,0,0,0-.21-.16c-.38,0-.38,0-.28.37l2.76,9.6c.18.62.35,1.24.53,1.86.06.2.06.21-.15.21h-2.83c-.21,0-.21,0-.21.21v8.56a1.22,1.22,0,0,1-.69,1.14.5.5,0,0,1-.29.07h-.33a1.22,1.22,0,0,1-1.24-1.24Z" style="fill:#fff;opacity:0.7000000000000001"></path><path d="M224.92,244.9l.26.06a2.54,2.54,0,0,1,2,2.47,2.58,2.58,0,0,1-4.26,2,2.4,2.4,0,0,1-.82-2.63,2.48,2.48,0,0,1,2.07-1.87l.14,0Z" style="fill:#0BBF64"></path><path d="M224.89,270.76v-4.27c0-.21,0-.22-.22-.22s-.3,0-.3.31q0,4.17,0,8.34a1.4,1.4,0,0,1-.54,1.13.76.76,0,0,1-.59.21h-.34c-.5.08-1.05-.52-1.08-1,0-.22,0-.44,0-.66v-8.16c0-.12-.05-.16-.16-.16h-2.85c-.23,0-.23,0-.17-.22l2.49-8.67c.28-1,.57-2,.85-3,0-.17,0-.18-.14-.18-.41,0-.34-.06-.45.33L219.53,261a1.06,1.06,0,0,1-.77.83,1.15,1.15,0,0,1-1.16-.35,1,1,0,0,1-.2-1c.21-.78.44-1.55.66-2.33.48-1.65.95-3.31,1.44-5a3.53,3.53,0,0,1,1.72-2.21,2.84,2.84,0,0,1,1.4-.37h3.85a3.21,3.21,0,0,1,2.92,1.76,7.4,7.4,0,0,1,.63,1.76c.59,2.06,1.19,4.12,1.78,6.18a2.06,2.06,0,0,1,0,.89.9.9,0,0,1-.67.62,1.09,1.09,0,0,1-1.43-.78c-.62-2.22-1.26-4.44-1.9-6.65a.17.17,0,0,0-.2-.16c-.39,0-.39,0-.28.36q1.38,4.82,2.75,9.61l.54,1.86c.06.2.05.2-.16.2h-2.83c-.21,0-.21,0-.21.22v8.56a1.2,1.2,0,0,1-.69,1.14.48.48,0,0,1-.29.07h-.32a1.22,1.22,0,0,1-1.24-1.24C224.88,273.6,224.89,272.18,224.89,270.76Z" style="fill:#0BBF64"></path><path d="M224.92,244.9l.26.06a2.54,2.54,0,0,1,2,2.47,2.58,2.58,0,0,1-4.26,2,2.4,2.4,0,0,1-.82-2.63,2.48,2.48,0,0,1,2.07-1.87l.14,0Z" style="fill:#fff;opacity:0.7000000000000001"></path><path d="M224.89,270.76v-4.27c0-.21,0-.22-.22-.22s-.3,0-.3.31q0,4.17,0,8.34a1.4,1.4,0,0,1-.54,1.13.76.76,0,0,1-.59.21h-.34c-.5.08-1.05-.52-1.08-1,0-.22,0-.44,0-.66v-8.16c0-.12-.05-.16-.16-.16h-2.85c-.23,0-.23,0-.17-.22l2.49-8.67c.28-1,.57-2,.85-3,0-.17,0-.18-.14-.18-.41,0-.34-.06-.45.33L219.53,261a1.06,1.06,0,0,1-.77.83,1.15,1.15,0,0,1-1.16-.35,1,1,0,0,1-.2-1c.21-.78.44-1.55.66-2.33.48-1.65.95-3.31,1.44-5a3.53,3.53,0,0,1,1.72-2.21,2.84,2.84,0,0,1,1.4-.37h3.85a3.21,3.21,0,0,1,2.92,1.76,7.4,7.4,0,0,1,.63,1.76c.59,2.06,1.19,4.12,1.78,6.18a2.06,2.06,0,0,1,0,.89.9.9,0,0,1-.67.62,1.09,1.09,0,0,1-1.43-.78c-.62-2.22-1.26-4.44-1.9-6.65a.17.17,0,0,0-.2-.16c-.39,0-.39,0-.28.36q1.38,4.82,2.75,9.61l.54,1.86c.06.2.05.2-.16.2h-2.83c-.21,0-.21,0-.21.22v8.56a1.2,1.2,0,0,1-.69,1.14.48.48,0,0,1-.29.07h-.32a1.22,1.22,0,0,1-1.24-1.24C224.88,273.6,224.89,272.18,224.89,270.76Z" style="fill:#fff;opacity:0.7000000000000001"></path><g id="freepik--1jhwpttif--inject-9"><path d="M92,277.35a3.79,3.79,0,0,1,.27-1,3.17,3.17,0,0,1,2.94-2c2,0,3.92,0,5.88,0a3.28,3.28,0,0,1,3.19,3,5.62,5.62,0,0,1,0,.58v7.64a1.13,1.13,0,0,1-.54,1.05,1.12,1.12,0,0,1-1.69-1v-6.88c0-.36,0-.32-.32-.32h-.09c-.14,0-.19.05-.17.18v19.74a1.52,1.52,0,0,1-.87,1.45.59.59,0,0,1-.29.07,4.86,4.86,0,0,0-.54,0,1.13,1.13,0,0,1-1-.51,1.49,1.49,0,0,1-.31-1V288.24c0-.41,0-.81,0-1.22,0-.13,0-.18-.17-.18-.45,0-.45,0-.45.43v11.12a1.5,1.5,0,0,1-.86,1.43l-.07,0a2.11,2.11,0,0,1-1.42-.15,1.47,1.47,0,0,1-.67-1.28c0-1.86,0-3.73,0-5.6q0-7.05,0-14.1c0-.28,0-.28-.27-.28s-.31,0-.31.3v6.86a1.12,1.12,0,0,1-2.18.38,1,1,0,0,0,0-.16Z" style="fill:#0BBF64"></path><path d="M98.16,273.7a2.55,2.55,0,0,1-2.58-2.55,2.57,2.57,0,1,1,2.58,2.55Z" style="fill:#0BBF64"></path></g><g id="freepik--1jhwpttif--inject-9"><path d="M92,277.35a3.79,3.79,0,0,1,.27-1,3.17,3.17,0,0,1,2.94-2c2,0,3.92,0,5.88,0a3.28,3.28,0,0,1,3.19,3,5.62,5.62,0,0,1,0,.58v7.64a1.13,1.13,0,0,1-.54,1.05,1.12,1.12,0,0,1-1.69-1v-6.88c0-.36,0-.32-.32-.32h-.09c-.14,0-.19.05-.17.18v19.74a1.52,1.52,0,0,1-.87,1.45.59.59,0,0,1-.29.07,4.86,4.86,0,0,0-.54,0,1.13,1.13,0,0,1-1-.51,1.49,1.49,0,0,1-.31-1V288.24c0-.41,0-.81,0-1.22,0-.13,0-.18-.17-.18-.45,0-.45,0-.45.43v11.12a1.5,1.5,0,0,1-.86,1.43l-.07,0a2.11,2.11,0,0,1-1.42-.15,1.47,1.47,0,0,1-.67-1.28c0-1.86,0-3.73,0-5.6q0-7.05,0-14.1c0-.28,0-.28-.27-.28s-.31,0-.31.3v6.86a1.12,1.12,0,0,1-2.18.38,1,1,0,0,0,0-.16Z" style="fill:#fff;opacity:0.7000000000000001"></path><path d="M98.16,273.7a2.55,2.55,0,0,1-2.58-2.55,2.57,2.57,0,1,1,2.58,2.55Z" style="fill:#fff;opacity:0.7000000000000001"></path></g><g id="freepik--1jhwpttif--inject-9"><path d="M194.26,273.47a4.24,4.24,0,0,1,.28-1,3.17,3.17,0,0,1,2.93-2c2,0,3.92,0,5.88,0a3.27,3.27,0,0,1,3.19,3,5.63,5.63,0,0,1,0,.58v7.64a1.14,1.14,0,0,1-.55,1.05,1.12,1.12,0,0,1-1.69-1v-6.88c0-.36,0-.32-.32-.32h-.09c-.14,0-.18.05-.17.18a1,1,0,0,1,0,.17v19.57a1.51,1.51,0,0,1-.86,1.45.63.63,0,0,1-.3.07,4.68,4.68,0,0,0-.53,0,1.14,1.14,0,0,1-1-.51,1.51,1.51,0,0,1-.32-1V283.14c0-.13,0-.18-.17-.18-.44,0-.44,0-.44.43V294.5a1.5,1.5,0,0,1-.87,1.44.15.15,0,0,1-.07,0c-.48,0-1,.17-1.42-.14a1.47,1.47,0,0,1-.67-1.28V274.84c0-.27,0-.27-.28-.27s-.3,0-.3.3v6.86a1.12,1.12,0,0,1-2.18.38l-.06-.16Z" style="fill:#0BBF64"></path><path d="M200.42,269.82a2.56,2.56,0,0,1-2.58-2.56,2.58,2.58,0,1,1,2.58,2.56Z" style="fill:#0BBF64"></path></g><g id="freepik--1jhwpttif--inject-9"><path d="M194.26,273.47a4.24,4.24,0,0,1,.28-1,3.17,3.17,0,0,1,2.93-2c2,0,3.92,0,5.88,0a3.27,3.27,0,0,1,3.19,3,5.63,5.63,0,0,1,0,.58v7.64a1.14,1.14,0,0,1-.55,1.05,1.12,1.12,0,0,1-1.69-1v-6.88c0-.36,0-.32-.32-.32h-.09c-.14,0-.18.05-.17.18a1,1,0,0,1,0,.17v19.57a1.51,1.51,0,0,1-.86,1.45.63.63,0,0,1-.3.07,4.68,4.68,0,0,0-.53,0,1.14,1.14,0,0,1-1-.51,1.51,1.51,0,0,1-.32-1V283.14c0-.13,0-.18-.17-.18-.44,0-.44,0-.44.43V294.5a1.5,1.5,0,0,1-.87,1.44.15.15,0,0,1-.07,0c-.48,0-1,.17-1.42-.14a1.47,1.47,0,0,1-.67-1.28V274.84c0-.27,0-.27-.28-.27s-.3,0-.3.3v6.86a1.12,1.12,0,0,1-2.18.38l-.06-.16Z" style="fill:#fff;opacity:0.7000000000000001"></path><path d="M200.42,269.82a2.56,2.56,0,0,1-2.58-2.56,2.58,2.58,0,1,1,2.58,2.56Z" style="fill:#fff;opacity:0.7000000000000001"></path></g><path d="M240.52,364.72l.27.06a2.56,2.56,0,0,1,2,2.47,2.59,2.59,0,0,1-4.27,2,2.41,2.41,0,0,1-.82-2.63,2.5,2.5,0,0,1,2.08-1.87l.13,0Z" style="fill:#0BBF64"></path><path d="M240.49,390.58v-4.27c0-.22,0-.22-.21-.22s-.31,0-.31.31v8.34a1.37,1.37,0,0,1-.54,1.13.74.74,0,0,1-.58.21h-.34c-.51.08-1-.53-1.08-1,0-.22,0-.44,0-.66,0-2.67,0-5.34,0-8a.75.75,0,0,1,0-.15c0-.12,0-.17-.17-.16a1.08,1.08,0,0,1-.18,0h-2.67c-.22,0-.23,0-.16-.22l2.49-8.67c.28-1,.56-2,.85-3,0-.17,0-.18-.14-.18-.42,0-.34-.06-.45.33q-.93,3.23-1.85,6.46a1.06,1.06,0,0,1-.77.83,1.17,1.17,0,0,1-1.16-.35,1,1,0,0,1-.2-1c.22-.78.44-1.55.67-2.33.47-1.65.94-3.31,1.43-5a3.57,3.57,0,0,1,1.72-2.21,3,3,0,0,1,1.41-.38h3.84A3.23,3.23,0,0,1,245,372.2a8.51,8.51,0,0,1,.63,1.75l1.77,6.18a1.83,1.83,0,0,1,0,.9.89.89,0,0,1-.66.62,1.1,1.1,0,0,1-1.44-.78c-.61-2.22-1.26-4.44-1.89-6.66a.18.18,0,0,0-.21-.15c-.38,0-.38,0-.28.36L245.7,384c.18.62.36,1.24.53,1.86.06.2.06.2-.15.2h-2.83c-.21,0-.21,0-.21.22v8.56a1.23,1.23,0,0,1-.69,1.14.59.59,0,0,1-.29.07h-.33a1.22,1.22,0,0,1-1.24-1.25Z" style="fill:#0BBF64"></path><path d="M240.52,364.72l.27.06a2.56,2.56,0,0,1,2,2.47,2.59,2.59,0,0,1-4.27,2,2.41,2.41,0,0,1-.82-2.63,2.5,2.5,0,0,1,2.08-1.87l.13,0Z" style="fill:#fff;opacity:0.7000000000000001"></path><path d="M240.49,390.58v-4.27c0-.22,0-.22-.21-.22s-.31,0-.31.31v8.34a1.37,1.37,0,0,1-.54,1.13.74.74,0,0,1-.58.21h-.34c-.51.08-1-.53-1.08-1,0-.22,0-.44,0-.66,0-2.67,0-5.34,0-8a.75.75,0,0,1,0-.15c0-.12,0-.17-.17-.16a1.08,1.08,0,0,1-.18,0h-2.67c-.22,0-.23,0-.16-.22l2.49-8.67c.28-1,.56-2,.85-3,0-.17,0-.18-.14-.18-.42,0-.34-.06-.45.33q-.93,3.23-1.85,6.46a1.06,1.06,0,0,1-.77.83,1.17,1.17,0,0,1-1.16-.35,1,1,0,0,1-.2-1c.22-.78.44-1.55.67-2.33.47-1.65.94-3.31,1.43-5a3.57,3.57,0,0,1,1.72-2.21,3,3,0,0,1,1.41-.38h3.84A3.23,3.23,0,0,1,245,372.2a8.51,8.51,0,0,1,.63,1.75l1.77,6.18a1.83,1.83,0,0,1,0,.9.89.89,0,0,1-.66.62,1.1,1.1,0,0,1-1.44-.78c-.61-2.22-1.26-4.44-1.89-6.66a.18.18,0,0,0-.21-.15c-.38,0-.38,0-.28.36L245.7,384c.18.62.36,1.24.53,1.86.06.2.06.2-.15.2h-2.83c-.21,0-.21,0-.21.22v8.56a1.23,1.23,0,0,1-.69,1.14.59.59,0,0,1-.29.07h-.33a1.22,1.22,0,0,1-1.24-1.25Z" style="fill:#fff;opacity:0.7000000000000001"></path><path d="M268.54,336.45l.27.06a2.55,2.55,0,0,1,2,2.47,2.6,2.6,0,0,1-4.27,2,2.4,2.4,0,0,1-.82-2.63,2.48,2.48,0,0,1,2.08-1.87l.13,0Z" style="fill:#0BBF64"></path><path d="M268.51,362.31V358c0-.21,0-.21-.22-.21s-.3,0-.3.3v8.35a1.37,1.37,0,0,1-.54,1.13.8.8,0,0,1-.59.21,1.22,1.22,0,0,0-.33,0c-.51.08-1-.53-1.08-1q0-.33,0-.66V358c0-.12-.05-.17-.16-.16h-2.85c-.22,0-.23,0-.17-.22l2.49-8.67c.29-1,.57-2,.85-3,.05-.17.05-.18-.13-.18-.42,0-.34-.06-.45.33q-.93,3.22-1.85,6.46a1,1,0,0,1-.77.82,1.15,1.15,0,0,1-1.16-.34,1,1,0,0,1-.2-1c.21-.78.44-1.55.66-2.33.48-1.66.95-3.32,1.44-5a3.51,3.51,0,0,1,1.72-2.21,2.88,2.88,0,0,1,1.4-.38h3.85a3.23,3.23,0,0,1,2.93,1.76,7.93,7.93,0,0,1,.62,1.75q.9,3.09,1.78,6.18a2,2,0,0,1,0,.9.88.88,0,0,1-.67.62,1.09,1.09,0,0,1-1.43-.78c-.61-2.23-1.26-4.44-1.9-6.66a.17.17,0,0,0-.2-.15c-.38,0-.39,0-.28.36l2.76,9.61c.17.62.35,1.24.53,1.85.06.21.05.21-.15.21h-2.84c-.21,0-.21,0-.21.22v8.56a1.22,1.22,0,0,1-.68,1.14.63.63,0,0,1-.3.07h-.32a1.22,1.22,0,0,1-1.24-1.25Z" style="fill:#0BBF64"></path><path d="M268.54,336.45l.27.06a2.55,2.55,0,0,1,2,2.47,2.6,2.6,0,0,1-4.27,2,2.4,2.4,0,0,1-.82-2.63,2.48,2.48,0,0,1,2.08-1.87l.13,0Z" style="fill:#fff;opacity:0.7000000000000001"></path><path d="M268.51,362.31V358c0-.21,0-.21-.22-.21s-.3,0-.3.3v8.35a1.37,1.37,0,0,1-.54,1.13.8.8,0,0,1-.59.21,1.22,1.22,0,0,0-.33,0c-.51.08-1-.53-1.08-1q0-.33,0-.66V358c0-.12-.05-.17-.16-.16h-2.85c-.22,0-.23,0-.17-.22l2.49-8.67c.29-1,.57-2,.85-3,.05-.17.05-.18-.13-.18-.42,0-.34-.06-.45.33q-.93,3.22-1.85,6.46a1,1,0,0,1-.77.82,1.15,1.15,0,0,1-1.16-.34,1,1,0,0,1-.2-1c.21-.78.44-1.55.66-2.33.48-1.66.95-3.32,1.44-5a3.51,3.51,0,0,1,1.72-2.21,2.88,2.88,0,0,1,1.4-.38h3.85a3.23,3.23,0,0,1,2.93,1.76,7.93,7.93,0,0,1,.62,1.75q.9,3.09,1.78,6.18a2,2,0,0,1,0,.9.88.88,0,0,1-.67.62,1.09,1.09,0,0,1-1.43-.78c-.61-2.23-1.26-4.44-1.9-6.66a.17.17,0,0,0-.2-.15c-.38,0-.39,0-.28.36l2.76,9.61c.17.62.35,1.24.53,1.85.06.21.05.21-.15.21h-2.84c-.21,0-.21,0-.21.22v8.56a1.22,1.22,0,0,1-.68,1.14.63.63,0,0,1-.3.07h-.32a1.22,1.22,0,0,1-1.24-1.25Z" style="fill:#fff;opacity:0.7000000000000001"></path><path d="M324.69,331.21l.27.06a2.56,2.56,0,0,1,2,2.48,2.59,2.59,0,0,1-4.27,2,2.4,2.4,0,0,1-.82-2.63,2.49,2.49,0,0,1,2.08-1.87l.13,0Z" style="fill:#0BBF64"></path><path d="M324.66,357.07V352.8c0-.21,0-.21-.22-.21s-.3,0-.3.3v8.35a1.4,1.4,0,0,1-.54,1.13.8.8,0,0,1-.59.21.92.92,0,0,0-.33,0c-.51.07-1.05-.53-1.08-1,0-.22,0-.44,0-.65v-8.17c0-.12-.05-.16-.16-.15h-2.85c-.22,0-.23,0-.17-.23l2.49-8.67c.29-1,.57-2,.85-2.95,0-.18,0-.19-.13-.19-.42,0-.34-.05-.45.33-.62,2.16-1.24,4.31-1.85,6.47a1.06,1.06,0,0,1-.77.82,1.13,1.13,0,0,1-1.16-.35,1,1,0,0,1-.2-1c.21-.77.44-1.55.66-2.32.48-1.66.95-3.32,1.44-5a3.53,3.53,0,0,1,1.72-2.22,3,3,0,0,1,1.4-.37h3.85a3.22,3.22,0,0,1,2.93,1.75,7.84,7.84,0,0,1,.62,1.76q.9,3.09,1.78,6.18a1.92,1.92,0,0,1,0,.89.88.88,0,0,1-.67.62,1.08,1.08,0,0,1-1.43-.78c-.61-2.22-1.26-4.43-1.9-6.65a.18.18,0,0,0-.2-.16c-.38,0-.39,0-.28.37l2.76,9.61c.17.61.35,1.23.53,1.85.06.2.05.21-.15.21h-2.84c-.21,0-.21,0-.21.21v8.56a1.21,1.21,0,0,1-.68,1.14.53.53,0,0,1-.3.07h-.32a1.22,1.22,0,0,1-1.24-1.24Z" style="fill:#0BBF64"></path><g style="opacity:0.8"><path d="M324.69,331.21l.27.06a2.56,2.56,0,0,1,2,2.48,2.59,2.59,0,0,1-4.27,2,2.4,2.4,0,0,1-.82-2.63,2.49,2.49,0,0,1,2.08-1.87l.13,0Z" style="fill:#fff"></path><path d="M324.66,357.07V352.8c0-.21,0-.21-.22-.21s-.3,0-.3.3v8.35a1.4,1.4,0,0,1-.54,1.13.8.8,0,0,1-.59.21.92.92,0,0,0-.33,0c-.51.07-1.05-.53-1.08-1,0-.22,0-.44,0-.65v-8.17c0-.12-.05-.16-.16-.15h-2.85c-.22,0-.23,0-.17-.23l2.49-8.67c.29-1,.57-2,.85-2.95,0-.18,0-.19-.13-.19-.42,0-.34-.05-.45.33-.62,2.16-1.24,4.31-1.85,6.47a1.06,1.06,0,0,1-.77.82,1.13,1.13,0,0,1-1.16-.35,1,1,0,0,1-.2-1c.21-.77.44-1.55.66-2.32.48-1.66.95-3.32,1.44-5a3.53,3.53,0,0,1,1.72-2.22,3,3,0,0,1,1.4-.37h3.85a3.22,3.22,0,0,1,2.93,1.75,7.84,7.84,0,0,1,.62,1.76q.9,3.09,1.78,6.18a1.92,1.92,0,0,1,0,.89.88.88,0,0,1-.67.62,1.08,1.08,0,0,1-1.43-.78c-.61-2.22-1.26-4.43-1.9-6.65a.18.18,0,0,0-.2-.16c-.38,0-.39,0-.28.37l2.76,9.61c.17.61.35,1.23.53,1.85.06.2.05.21-.15.21h-2.84c-.21,0-.21,0-.21.21v8.56a1.21,1.21,0,0,1-.68,1.14.53.53,0,0,1-.3.07h-.32a1.22,1.22,0,0,1-1.24-1.24Z" style="fill:#fff"></path></g><path d="M379.59,338.32l.26.06a2.55,2.55,0,0,1,2,2.48,2.58,2.58,0,0,1-4.26,2,2.4,2.4,0,0,1-.82-2.63,2.49,2.49,0,0,1,2.07-1.87l.13,0Z" style="fill:#0BBF64"></path><path d="M379.55,364.18v-4.27c0-.21,0-.21-.21-.21s-.31,0-.31.3q0,4.17,0,8.34a1.4,1.4,0,0,1-.54,1.13.77.77,0,0,1-.59.21,1.29,1.29,0,0,0-.34,0c-.5.07-1.05-.53-1.08-1,0-.22,0-.44,0-.65v-8a.86.86,0,0,1,0-.16c0-.12-.05-.16-.17-.15h-2.84c-.23,0-.23,0-.17-.23l2.49-8.67.85-2.95c.05-.18,0-.19-.14-.19-.41,0-.34-.06-.45.33-.62,2.16-1.24,4.31-1.84,6.46a1.05,1.05,0,0,1-.78.83,1.12,1.12,0,0,1-1.15-.35,1,1,0,0,1-.21-1l.67-2.32c.48-1.66.94-3.32,1.44-5a3.53,3.53,0,0,1,1.72-2.22,3,3,0,0,1,1.4-.37h3.84a3.19,3.19,0,0,1,2.93,1.75,7.4,7.4,0,0,1,.63,1.76l1.77,6.18a1.92,1.92,0,0,1,0,.89.9.9,0,0,1-.67.62,1.08,1.08,0,0,1-1.43-.78c-.62-2.22-1.27-4.43-1.9-6.65a.18.18,0,0,0-.2-.16c-.39,0-.39,0-.28.37q1.37,4.8,2.75,9.6l.54,1.86c.05.2.05.21-.16.21h-2.83c-.21,0-.21,0-.21.21v8.56a1.2,1.2,0,0,1-.69,1.14.48.48,0,0,1-.29.07h-.32a1.22,1.22,0,0,1-1.24-1.24C379.55,367,379.55,365.6,379.55,364.18Z" style="fill:#0BBF64"></path><g style="opacity:0.8"><path d="M379.59,338.32l.26.06a2.55,2.55,0,0,1,2,2.48,2.58,2.58,0,0,1-4.26,2,2.4,2.4,0,0,1-.82-2.63,2.49,2.49,0,0,1,2.07-1.87l.13,0Z" style="fill:#fff"></path><path d="M379.55,364.18v-4.27c0-.21,0-.21-.21-.21s-.31,0-.31.3q0,4.17,0,8.34a1.4,1.4,0,0,1-.54,1.13.77.77,0,0,1-.59.21,1.29,1.29,0,0,0-.34,0c-.5.07-1.05-.53-1.08-1,0-.22,0-.44,0-.65v-8a.86.86,0,0,1,0-.16c0-.12-.05-.16-.17-.15h-2.84c-.23,0-.23,0-.17-.23l2.49-8.67.85-2.95c.05-.18,0-.19-.14-.19-.41,0-.34-.06-.45.33-.62,2.16-1.24,4.31-1.84,6.46a1.05,1.05,0,0,1-.78.83,1.12,1.12,0,0,1-1.15-.35,1,1,0,0,1-.21-1l.67-2.32c.48-1.66.94-3.32,1.44-5a3.53,3.53,0,0,1,1.72-2.22,3,3,0,0,1,1.4-.37h3.84a3.19,3.19,0,0,1,2.93,1.75,7.4,7.4,0,0,1,.63,1.76l1.77,6.18a1.92,1.92,0,0,1,0,.89.9.9,0,0,1-.67.62,1.08,1.08,0,0,1-1.43-.78c-.62-2.22-1.27-4.43-1.9-6.65a.18.18,0,0,0-.2-.16c-.39,0-.39,0-.28.37q1.37,4.8,2.75,9.6l.54,1.86c.05.2.05.21-.16.21h-2.83c-.21,0-.21,0-.21.21v8.56a1.2,1.2,0,0,1-.69,1.14.48.48,0,0,1-.29.07h-.32a1.22,1.22,0,0,1-1.24-1.24C379.55,367,379.55,365.6,379.55,364.18Z" style="fill:#fff"></path></g><g id="freepik--1jhwpttif--inject-9"><path d="M292.8,365.05a4.38,4.38,0,0,1,.28-1,3.2,3.2,0,0,1,2.94-2c2,0,3.92,0,5.88,0a3.3,3.3,0,0,1,3.19,3,5.82,5.82,0,0,1,0,.59v7.64a1.12,1.12,0,0,1-.55,1,1.11,1.11,0,0,1-1.68-1c0-2.29,0-4.58,0-6.87,0-.36,0-.32-.32-.32h-.09c-.14,0-.19.05-.18.18a1,1,0,0,1,0,.17v19.57a1.52,1.52,0,0,1-.86,1.46.73.73,0,0,1-.29.07,3.25,3.25,0,0,0-.54,0,1.14,1.14,0,0,1-1-.51,1.53,1.53,0,0,1-.32-1c0-3.38,0-6.77,0-10.15,0-.41,0-.82,0-1.23,0-.13,0-.18-.18-.18-.44,0-.44,0-.44.43v11.12a1.5,1.5,0,0,1-.87,1.44l-.06,0a2.2,2.2,0,0,1-1.43-.14,1.5,1.5,0,0,1-.66-1.28c0-1.87,0-3.74,0-5.61v-14.1c0-.27,0-.28-.27-.27s-.31,0-.31.3v6.86a1.12,1.12,0,0,1-.73,1.08,1.1,1.1,0,0,1-1.45-.71l-.06-.15Z" style="fill:#0BBF64"></path><path d="M299,361.41a2.57,2.57,0,1,1,0-5.14,2.57,2.57,0,1,1,0,5.14Z" style="fill:#0BBF64"></path></g><g id="freepik--1jhwpttif--inject-9"><path d="M292.8,365.05a4.38,4.38,0,0,1,.28-1,3.2,3.2,0,0,1,2.94-2c2,0,3.92,0,5.88,0a3.3,3.3,0,0,1,3.19,3,5.82,5.82,0,0,1,0,.59v7.64a1.12,1.12,0,0,1-.55,1,1.11,1.11,0,0,1-1.68-1c0-2.29,0-4.58,0-6.87,0-.36,0-.32-.32-.32h-.09c-.14,0-.19.05-.18.18a1,1,0,0,1,0,.17v19.57a1.52,1.52,0,0,1-.86,1.46.73.73,0,0,1-.29.07,3.25,3.25,0,0,0-.54,0,1.14,1.14,0,0,1-1-.51,1.53,1.53,0,0,1-.32-1c0-3.38,0-6.77,0-10.15,0-.41,0-.82,0-1.23,0-.13,0-.18-.18-.18-.44,0-.44,0-.44.43v11.12a1.5,1.5,0,0,1-.87,1.44l-.06,0a2.2,2.2,0,0,1-1.43-.14,1.5,1.5,0,0,1-.66-1.28c0-1.87,0-3.74,0-5.61v-14.1c0-.27,0-.28-.27-.27s-.31,0-.31.3v6.86a1.12,1.12,0,0,1-.73,1.08,1.1,1.1,0,0,1-1.45-.71l-.06-.15Z" style="fill:#fff;opacity:0.7000000000000001"></path><path d="M299,361.41a2.57,2.57,0,1,1,0-5.14,2.57,2.57,0,1,1,0,5.14Z" style="fill:#fff;opacity:0.7000000000000001"></path></g><g id="freepik--1jhwpttif--inject-9"><path d="M395.7,339.74a3.79,3.79,0,0,1,.27-1,3.2,3.2,0,0,1,2.94-2c2,0,3.92,0,5.88,0a3.29,3.29,0,0,1,3.19,3,5.62,5.62,0,0,1,0,.58V348a1.14,1.14,0,0,1-.55,1.05,1.11,1.11,0,0,1-1.68-1c0-2.29,0-4.59,0-6.88,0-.36,0-.32-.32-.32h-.09c-.14,0-.19.05-.18.18a.91.91,0,0,1,0,.17v19.57a1.52,1.52,0,0,1-.87,1.45.59.59,0,0,1-.29.07,4.86,4.86,0,0,0-.54,0,1.12,1.12,0,0,1-1-.51,1.49,1.49,0,0,1-.31-1V350.63c0-.4,0-.81,0-1.22,0-.13,0-.18-.18-.18-.44,0-.44,0-.44.43v11.12a1.5,1.5,0,0,1-.86,1.43l-.07,0a2.14,2.14,0,0,1-1.43-.15,1.49,1.49,0,0,1-.66-1.28c0-1.86,0-3.73,0-5.6v-14.1c0-.28,0-.28-.27-.28s-.31,0-.31.3V348a1.12,1.12,0,0,1-2.18.38,1,1,0,0,1-.05-.16Z" style="fill:#0BBF64"></path><path d="M401.85,336.09a2.55,2.55,0,0,1-2.57-2.55,2.57,2.57,0,1,1,2.57,2.55Z" style="fill:#0BBF64"></path></g><g id="freepik--1jhwpttif--inject-9"><path d="M395.7,339.74a3.79,3.79,0,0,1,.27-1,3.2,3.2,0,0,1,2.94-2c2,0,3.92,0,5.88,0a3.29,3.29,0,0,1,3.19,3,5.62,5.62,0,0,1,0,.58V348a1.14,1.14,0,0,1-.55,1.05,1.11,1.11,0,0,1-1.68-1c0-2.29,0-4.59,0-6.88,0-.36,0-.32-.32-.32h-.09c-.14,0-.19.05-.18.18a.91.91,0,0,1,0,.17v19.57a1.52,1.52,0,0,1-.87,1.45.59.59,0,0,1-.29.07,4.86,4.86,0,0,0-.54,0,1.12,1.12,0,0,1-1-.51,1.49,1.49,0,0,1-.31-1V350.63c0-.4,0-.81,0-1.22,0-.13,0-.18-.18-.18-.44,0-.44,0-.44.43v11.12a1.5,1.5,0,0,1-.86,1.43l-.07,0a2.14,2.14,0,0,1-1.43-.15,1.49,1.49,0,0,1-.66-1.28c0-1.86,0-3.73,0-5.6v-14.1c0-.28,0-.28-.27-.28s-.31,0-.31.3V348a1.12,1.12,0,0,1-2.18.38,1,1,0,0,1-.05-.16Z" style="fill:#fff;opacity:0.7000000000000001"></path><path d="M401.85,336.09a2.55,2.55,0,0,1-2.57-2.55,2.57,2.57,0,1,1,2.57,2.55Z" style="fill:#fff;opacity:0.7000000000000001"></path></g><g id="freepik--1jhwpttif--inject-9"><path d="M343.79,364a3.46,3.46,0,0,1,.28-1,3.17,3.17,0,0,1,2.93-2c2,0,3.92,0,5.88,0a3.28,3.28,0,0,1,3.19,3,5.63,5.63,0,0,1,0,.58v7.64a1.14,1.14,0,0,1-.55,1.05,1.12,1.12,0,0,1-1.69-1v-6.88c0-.36,0-.32-.32-.32h-.09c-.14,0-.18.05-.17.18V385a1.5,1.5,0,0,1-.87,1.45.57.57,0,0,1-.29.07,4.86,4.86,0,0,0-.54,0,1.12,1.12,0,0,1-1-.51,1.45,1.45,0,0,1-.32-1V373.63c0-.13,0-.18-.17-.18-.45,0-.45,0-.45.43,0,3.7,0,7.41,0,11.12a1.51,1.51,0,0,1-.86,1.43l-.07,0c-.48,0-1,.17-1.42-.14a1.47,1.47,0,0,1-.67-1.28c0-1.87,0-3.73,0-5.6q0-7.05,0-14.11c0-.27,0-.27-.27-.27s-.31,0-.31.3v6.86a1.12,1.12,0,0,1-2.18.38,1,1,0,0,0,0-.16Z" style="fill:#0BBF64"></path><path d="M350,360.31a2.55,2.55,0,0,1-2.58-2.56,2.57,2.57,0,1,1,5.14,0A2.55,2.55,0,0,1,350,360.31Z" style="fill:#0BBF64"></path></g><g id="freepik--1jhwpttif--inject-9"><path d="M343.79,364a3.46,3.46,0,0,1,.28-1,3.17,3.17,0,0,1,2.93-2c2,0,3.92,0,5.88,0a3.28,3.28,0,0,1,3.19,3,5.63,5.63,0,0,1,0,.58v7.64a1.14,1.14,0,0,1-.55,1.05,1.12,1.12,0,0,1-1.69-1v-6.88c0-.36,0-.32-.32-.32h-.09c-.14,0-.18.05-.17.18V385a1.5,1.5,0,0,1-.87,1.45.57.57,0,0,1-.29.07,4.86,4.86,0,0,0-.54,0,1.12,1.12,0,0,1-1-.51,1.45,1.45,0,0,1-.32-1V373.63c0-.13,0-.18-.17-.18-.45,0-.45,0-.45.43,0,3.7,0,7.41,0,11.12a1.51,1.51,0,0,1-.86,1.43l-.07,0c-.48,0-1,.17-1.42-.14a1.47,1.47,0,0,1-.67-1.28c0-1.87,0-3.73,0-5.6q0-7.05,0-14.11c0-.27,0-.27-.27-.27s-.31,0-.31.3v6.86a1.12,1.12,0,0,1-2.18.38,1,1,0,0,0,0-.16Z" style="fill:#fff;opacity:0.7000000000000001"></path><path d="M350,360.31a2.55,2.55,0,0,1-2.58-2.56,2.57,2.57,0,1,1,5.14,0A2.55,2.55,0,0,1,350,360.31Z" style="fill:#fff;opacity:0.7000000000000001"></path></g><g id="freepik--1jhwpttif--inject-9"><path d="M118.5,295.53a4.38,4.38,0,0,1,.28-1,3.17,3.17,0,0,1,2.94-2c2,0,3.92,0,5.88,0a3.3,3.3,0,0,1,3.19,3c0,.2,0,.39,0,.58v7.64a1.13,1.13,0,0,1-.55,1.05,1.11,1.11,0,0,1-1.68-1c0-2.29,0-4.58,0-6.88,0-.36,0-.31-.31-.32h-.1c-.13,0-.18.05-.17.18a1,1,0,0,1,0,.17v19.57a1.51,1.51,0,0,1-.86,1.45.5.5,0,0,1-.29.07,4.87,4.87,0,0,0-.54,0,1.15,1.15,0,0,1-1-.52,1.5,1.5,0,0,1-.32-1c0-3.39,0-6.77,0-10.15,0-.41,0-.82,0-1.23,0-.13,0-.18-.18-.18-.44,0-.44,0-.44.43v11.12a1.5,1.5,0,0,1-.87,1.44l-.06,0a2.14,2.14,0,0,1-1.43-.15,1.47,1.47,0,0,1-.66-1.27c0-1.87,0-3.74,0-5.61v-14.1c0-.28,0-.28-.27-.28s-.31,0-.31.3v6.87a1.12,1.12,0,0,1-.73,1.08,1.1,1.1,0,0,1-1.45-.71l-.06-.16Z" style="fill:#0BBF64"></path><path d="M124.66,291.89a2.58,2.58,0,0,1,0-5.15,2.58,2.58,0,0,1,0,5.15Z" style="fill:#0BBF64"></path></g><g id="freepik--1jhwpttif--inject-9"><path d="M118.5,295.53a4.38,4.38,0,0,1,.28-1,3.17,3.17,0,0,1,2.94-2c2,0,3.92,0,5.88,0a3.3,3.3,0,0,1,3.19,3c0,.2,0,.39,0,.58v7.64a1.13,1.13,0,0,1-.55,1.05,1.11,1.11,0,0,1-1.68-1c0-2.29,0-4.58,0-6.88,0-.36,0-.31-.31-.32h-.1c-.13,0-.18.05-.17.18a1,1,0,0,1,0,.17v19.57a1.51,1.51,0,0,1-.86,1.45.5.5,0,0,1-.29.07,4.87,4.87,0,0,0-.54,0,1.15,1.15,0,0,1-1-.52,1.5,1.5,0,0,1-.32-1c0-3.39,0-6.77,0-10.15,0-.41,0-.82,0-1.23,0-.13,0-.18-.18-.18-.44,0-.44,0-.44.43v11.12a1.5,1.5,0,0,1-.87,1.44l-.06,0a2.14,2.14,0,0,1-1.43-.15,1.47,1.47,0,0,1-.66-1.27c0-1.87,0-3.74,0-5.61v-14.1c0-.28,0-.28-.27-.28s-.31,0-.31.3v6.87a1.12,1.12,0,0,1-.73,1.08,1.1,1.1,0,0,1-1.45-.71l-.06-.16Z" style="fill:#fff;opacity:0.7000000000000001"></path><path d="M124.66,291.89a2.58,2.58,0,0,1,0-5.15,2.58,2.58,0,0,1,0,5.15Z" style="fill:#fff;opacity:0.7000000000000001"></path></g><g id="freepik--1jhwpttif--inject-9"><path d="M372,208a4.16,4.16,0,0,1,.28-1,3.19,3.19,0,0,1,2.94-2c1.95,0,3.92,0,5.87,0a3.31,3.31,0,0,1,3.2,3c0,.19,0,.38,0,.58v7.64a1.12,1.12,0,0,1-.55,1,1.11,1.11,0,0,1-1.68-1q0-3.44,0-6.87c0-.36,0-.32-.31-.32h-.1c-.13,0-.18.05-.17.17a1,1,0,0,1,0,.17V229a1.52,1.52,0,0,1-.86,1.46.78.78,0,0,1-.3.07,3.13,3.13,0,0,0-.53,0,1.14,1.14,0,0,1-1-.51,1.53,1.53,0,0,1-.32-1V218.85c0-.41,0-.82,0-1.23,0-.13,0-.17-.18-.17-.44,0-.44,0-.44.42V229a1.5,1.5,0,0,1-.87,1.44.15.15,0,0,1-.07,0,2.17,2.17,0,0,1-1.42-.14,1.53,1.53,0,0,1-.67-1.28V209.33c0-.27,0-.27-.27-.27s-.31,0-.31.3v6.86a1.12,1.12,0,0,1-.73,1.08,1.11,1.11,0,0,1-1.45-.7l-.06-.16Z" style="fill:#0BBF64"></path><path d="M378.2,204.31a2.57,2.57,0,1,1,2.57-2.57A2.57,2.57,0,0,1,378.2,204.31Z" style="fill:#0BBF64"></path></g><g id="freepik--1jhwpttif--inject-9"><path d="M372,208a4.16,4.16,0,0,1,.28-1,3.19,3.19,0,0,1,2.94-2c1.95,0,3.92,0,5.87,0a3.31,3.31,0,0,1,3.2,3c0,.19,0,.38,0,.58v7.64a1.12,1.12,0,0,1-.55,1,1.11,1.11,0,0,1-1.68-1q0-3.44,0-6.87c0-.36,0-.32-.31-.32h-.1c-.13,0-.18.05-.17.17a1,1,0,0,1,0,.17V229a1.52,1.52,0,0,1-.86,1.46.78.78,0,0,1-.3.07,3.13,3.13,0,0,0-.53,0,1.14,1.14,0,0,1-1-.51,1.53,1.53,0,0,1-.32-1V218.85c0-.41,0-.82,0-1.23,0-.13,0-.17-.18-.17-.44,0-.44,0-.44.42V229a1.5,1.5,0,0,1-.87,1.44.15.15,0,0,1-.07,0,2.17,2.17,0,0,1-1.42-.14,1.53,1.53,0,0,1-.67-1.28V209.33c0-.27,0-.27-.27-.27s-.31,0-.31.3v6.86a1.12,1.12,0,0,1-.73,1.08,1.11,1.11,0,0,1-1.45-.7l-.06-.16Z" style="fill:#fff;opacity:0.7000000000000001"></path><path d="M378.2,204.31a2.57,2.57,0,1,1,2.57-2.57A2.57,2.57,0,0,1,378.2,204.31Z" style="fill:#fff;opacity:0.7000000000000001"></path></g><g id="freepik--1jhwpttif--inject-9"><path d="M264.64,210.4a4.16,4.16,0,0,1,.28-1,3.17,3.17,0,0,1,2.93-2c2,0,3.92,0,5.88,0a3.31,3.31,0,0,1,3.2,3c0,.19,0,.38,0,.58v7.64a1.12,1.12,0,0,1-.55,1,1.11,1.11,0,0,1-1.69-1v-6.87c0-.36,0-.32-.32-.32h-.09c-.14,0-.18.05-.17.18a.86.86,0,0,1,0,.16v19.57a1.52,1.52,0,0,1-.86,1.46.78.78,0,0,1-.3.07,3.13,3.13,0,0,0-.53,0,1.14,1.14,0,0,1-1-.51,1.53,1.53,0,0,1-.32-1V220.08c0-.14,0-.18-.17-.18-.44,0-.44,0-.44.43v11.11a1.5,1.5,0,0,1-.87,1.44.15.15,0,0,1-.07,0,2.17,2.17,0,0,1-1.42-.14,1.48,1.48,0,0,1-.67-1.28V211.78c0-.27,0-.27-.28-.27s-.3,0-.3.3v6.86a1.12,1.12,0,0,1-2.18.38l-.06-.16Z" style="fill:#0BBF64"></path><path d="M270.8,206.76a2.57,2.57,0,1,1,2.57-2.57A2.56,2.56,0,0,1,270.8,206.76Z" style="fill:#0BBF64"></path></g><g id="freepik--1jhwpttif--inject-9"><path d="M264.64,210.4a4.16,4.16,0,0,1,.28-1,3.17,3.17,0,0,1,2.93-2c2,0,3.92,0,5.88,0a3.31,3.31,0,0,1,3.2,3c0,.19,0,.38,0,.58v7.64a1.12,1.12,0,0,1-.55,1,1.11,1.11,0,0,1-1.69-1v-6.87c0-.36,0-.32-.32-.32h-.09c-.14,0-.18.05-.17.18a.86.86,0,0,1,0,.16v19.57a1.52,1.52,0,0,1-.86,1.46.78.78,0,0,1-.3.07,3.13,3.13,0,0,0-.53,0,1.14,1.14,0,0,1-1-.51,1.53,1.53,0,0,1-.32-1V220.08c0-.14,0-.18-.17-.18-.44,0-.44,0-.44.43v11.11a1.5,1.5,0,0,1-.87,1.44.15.15,0,0,1-.07,0,2.17,2.17,0,0,1-1.42-.14,1.48,1.48,0,0,1-.67-1.28V211.78c0-.27,0-.27-.28-.27s-.3,0-.3.3v6.86a1.12,1.12,0,0,1-2.18.38l-.06-.16Z" style="fill:#fff;opacity:0.7000000000000001"></path><path d="M270.8,206.76a2.57,2.57,0,1,1,2.57-2.57A2.56,2.56,0,0,1,270.8,206.76Z" style="fill:#fff;opacity:0.7000000000000001"></path></g><path d="M209.29,319.37l.26.06a2.54,2.54,0,0,1,2,2.47,2.58,2.58,0,0,1-4.26,2,2.4,2.4,0,0,1-.82-2.63,2.49,2.49,0,0,1,2.07-1.87l.14,0Z" style="fill:#0BBF64"></path><path d="M209.26,345.23V341c0-.21,0-.21-.22-.21s-.31,0-.31.3q0,4.17,0,8.34a1.4,1.4,0,0,1-.54,1.13.76.76,0,0,1-.59.21h-.34c-.5.08-1.05-.52-1.08-1,0-.22,0-.44,0-.66V340.9c0-.12,0-.16-.16-.15h-2.85c-.23,0-.23,0-.17-.23l2.49-8.67c.28-1,.57-2,.85-3,0-.17,0-.18-.14-.18-.41,0-.34-.06-.45.33-.62,2.15-1.24,4.31-1.84,6.46a1.06,1.06,0,0,1-.77.83A1.13,1.13,0,0,1,202,336a1,1,0,0,1-.2-1c.21-.78.44-1.55.66-2.32.48-1.66.94-3.32,1.44-5a3.53,3.53,0,0,1,1.72-2.21,2.84,2.84,0,0,1,1.4-.37q1.92,0,3.84,0a3.19,3.19,0,0,1,2.93,1.75,7.4,7.4,0,0,1,.63,1.76q.88,3.09,1.78,6.18a2.06,2.06,0,0,1,0,.89.9.9,0,0,1-.67.62,1.08,1.08,0,0,1-1.43-.78c-.62-2.22-1.27-4.44-1.9-6.65a.18.18,0,0,0-.2-.16c-.39,0-.39,0-.28.36q1.36,4.81,2.75,9.61l.54,1.86c.06.2.05.21-.16.21H212c-.21,0-.21,0-.21.21v8.56a1.2,1.2,0,0,1-.69,1.14.48.48,0,0,1-.29.07h-.32a1.22,1.22,0,0,1-1.24-1.24C209.25,348.07,209.26,346.65,209.26,345.23Z" style="fill:#0BBF64"></path><path d="M209.29,319.37l.26.06a2.54,2.54,0,0,1,2,2.47,2.58,2.58,0,0,1-4.26,2,2.4,2.4,0,0,1-.82-2.63,2.49,2.49,0,0,1,2.07-1.87l.14,0Z" style="fill:#fff;opacity:0.7000000000000001"></path><path d="M209.26,345.23V341c0-.21,0-.21-.22-.21s-.31,0-.31.3q0,4.17,0,8.34a1.4,1.4,0,0,1-.54,1.13.76.76,0,0,1-.59.21h-.34c-.5.08-1.05-.52-1.08-1,0-.22,0-.44,0-.66V340.9c0-.12,0-.16-.16-.15h-2.85c-.23,0-.23,0-.17-.23l2.49-8.67c.28-1,.57-2,.85-3,0-.17,0-.18-.14-.18-.41,0-.34-.06-.45.33-.62,2.15-1.24,4.31-1.84,6.46a1.06,1.06,0,0,1-.77.83A1.13,1.13,0,0,1,202,336a1,1,0,0,1-.2-1c.21-.78.44-1.55.66-2.32.48-1.66.94-3.32,1.44-5a3.53,3.53,0,0,1,1.72-2.21,2.84,2.84,0,0,1,1.4-.37q1.92,0,3.84,0a3.19,3.19,0,0,1,2.93,1.75,7.4,7.4,0,0,1,.63,1.76q.88,3.09,1.78,6.18a2.06,2.06,0,0,1,0,.89.9.9,0,0,1-.67.62,1.08,1.08,0,0,1-1.43-.78c-.62-2.22-1.27-4.44-1.9-6.65a.18.18,0,0,0-.2-.16c-.39,0-.39,0-.28.36q1.36,4.81,2.75,9.61l.54,1.86c.06.2.05.21-.16.21H212c-.21,0-.21,0-.21.21v8.56a1.2,1.2,0,0,1-.69,1.14.48.48,0,0,1-.29.07h-.32a1.22,1.22,0,0,1-1.24-1.24C209.25,348.07,209.26,346.65,209.26,345.23Z" style="fill:#fff;opacity:0.7000000000000001"></path><path d="M148.6,336.38l.26.06a2.55,2.55,0,0,1,2,2.47,2.58,2.58,0,0,1-4.26,2,2.4,2.4,0,0,1-.82-2.63,2.48,2.48,0,0,1,2.07-1.87l.13,0Z" style="fill:#0BBF64"></path><path d="M148.56,362.24V358c0-.22,0-.22-.21-.22s-.31,0-.31.31q0,4.17,0,8.34a1.4,1.4,0,0,1-.54,1.13.81.81,0,0,1-.59.21h-.34c-.5.08-1.05-.53-1.08-1,0-.22,0-.44,0-.66v-8.16c0-.12,0-.17-.17-.16h-2.84c-.23,0-.23,0-.17-.22l2.49-8.67c.28-1,.57-2,.85-3,.05-.17,0-.18-.14-.18-.41,0-.34-.06-.45.33-.62,2.15-1.24,4.3-1.84,6.46a1.06,1.06,0,0,1-.77.83,1.17,1.17,0,0,1-1.16-.35,1,1,0,0,1-.21-1c.22-.78.45-1.55.67-2.33.48-1.65.94-3.31,1.44-5a3.51,3.51,0,0,1,1.72-2.21,3,3,0,0,1,1.4-.38h3.84a3.22,3.22,0,0,1,2.93,1.76,7.48,7.48,0,0,1,.63,1.75l1.77,6.18a2,2,0,0,1,0,.9.92.92,0,0,1-.67.62,1.09,1.09,0,0,1-1.43-.78c-.62-2.22-1.27-4.44-1.9-6.66a.17.17,0,0,0-.2-.15c-.39,0-.39,0-.28.36q1.36,4.82,2.75,9.61l.54,1.86c.05.2.05.2-.16.2h-2.83c-.21,0-.21,0-.21.22v8.56a1.21,1.21,0,0,1-.69,1.14.57.57,0,0,1-.29.07h-.32a1.22,1.22,0,0,1-1.24-1.25C148.56,365.08,148.56,363.66,148.56,362.24Z" style="fill:#0BBF64"></path><path d="M148.6,336.38l.26.06a2.55,2.55,0,0,1,2,2.47,2.58,2.58,0,0,1-4.26,2,2.4,2.4,0,0,1-.82-2.63,2.48,2.48,0,0,1,2.07-1.87l.13,0Z" style="fill:#fff;opacity:0.7000000000000001"></path><path d="M148.56,362.24V358c0-.22,0-.22-.21-.22s-.31,0-.31.31q0,4.17,0,8.34a1.4,1.4,0,0,1-.54,1.13.81.81,0,0,1-.59.21h-.34c-.5.08-1.05-.53-1.08-1,0-.22,0-.44,0-.66v-8.16c0-.12,0-.17-.17-.16h-2.84c-.23,0-.23,0-.17-.22l2.49-8.67c.28-1,.57-2,.85-3,.05-.17,0-.18-.14-.18-.41,0-.34-.06-.45.33-.62,2.15-1.24,4.3-1.84,6.46a1.06,1.06,0,0,1-.77.83,1.17,1.17,0,0,1-1.16-.35,1,1,0,0,1-.21-1c.22-.78.45-1.55.67-2.33.48-1.65.94-3.31,1.44-5a3.51,3.51,0,0,1,1.72-2.21,3,3,0,0,1,1.4-.38h3.84a3.22,3.22,0,0,1,2.93,1.76,7.48,7.48,0,0,1,.63,1.75l1.77,6.18a2,2,0,0,1,0,.9.92.92,0,0,1-.67.62,1.09,1.09,0,0,1-1.43-.78c-.62-2.22-1.27-4.44-1.9-6.66a.17.17,0,0,0-.2-.15c-.39,0-.39,0-.28.36q1.36,4.82,2.75,9.61l.54,1.86c.05.2.05.2-.16.2h-2.83c-.21,0-.21,0-.21.22v8.56a1.21,1.21,0,0,1-.69,1.14.57.57,0,0,1-.29.07h-.32a1.22,1.22,0,0,1-1.24-1.25C148.56,365.08,148.56,363.66,148.56,362.24Z" style="fill:#fff;opacity:0.7000000000000001"></path><g id="freepik--1jhwpttif--inject-9"><path d="M176.4,346.89a4.38,4.38,0,0,1,.28-1,3.17,3.17,0,0,1,2.94-2c2,0,3.92,0,5.88,0a3.3,3.3,0,0,1,3.19,3,5.72,5.72,0,0,1,0,.58v7.64a1.13,1.13,0,0,1-.55,1,1.11,1.11,0,0,1-1.68-1c0-2.29,0-4.58,0-6.88,0-.36,0-.31-.32-.32h-.09c-.14,0-.19.05-.18.18a1,1,0,0,1,0,.17v19.57a1.51,1.51,0,0,1-.86,1.45.59.59,0,0,1-.29.07h-.54a1.12,1.12,0,0,1-1-.51,1.5,1.5,0,0,1-.32-1q0-5.08,0-10.15c0-.41,0-.82,0-1.23,0-.13,0-.18-.18-.18-.44,0-.44,0-.44.43v11.12a1.51,1.51,0,0,1-.86,1.44l-.07,0a2.14,2.14,0,0,1-1.43-.15,1.47,1.47,0,0,1-.66-1.27c0-1.87,0-3.74,0-5.61v-14.1c0-.28,0-.28-.27-.28s-.31,0-.31.3v6.86a1.12,1.12,0,0,1-.73,1.09,1.1,1.1,0,0,1-1.45-.71l-.06-.16Z" style="fill:#0BBF64"></path><path d="M182.56,343.25a2.58,2.58,0,0,1,0-5.15,2.58,2.58,0,0,1,0,5.15Z" style="fill:#0BBF64"></path></g><g id="freepik--1jhwpttif--inject-9"><path d="M176.4,346.89a4.38,4.38,0,0,1,.28-1,3.17,3.17,0,0,1,2.94-2c2,0,3.92,0,5.88,0a3.3,3.3,0,0,1,3.19,3,5.72,5.72,0,0,1,0,.58v7.64a1.13,1.13,0,0,1-.55,1,1.11,1.11,0,0,1-1.68-1c0-2.29,0-4.58,0-6.88,0-.36,0-.31-.32-.32h-.09c-.14,0-.19.05-.18.18a1,1,0,0,1,0,.17v19.57a1.51,1.51,0,0,1-.86,1.45.59.59,0,0,1-.29.07h-.54a1.12,1.12,0,0,1-1-.51,1.5,1.5,0,0,1-.32-1q0-5.08,0-10.15c0-.41,0-.82,0-1.23,0-.13,0-.18-.18-.18-.44,0-.44,0-.44.43v11.12a1.51,1.51,0,0,1-.86,1.44l-.07,0a2.14,2.14,0,0,1-1.43-.15,1.47,1.47,0,0,1-.66-1.27c0-1.87,0-3.74,0-5.61v-14.1c0-.28,0-.28-.27-.28s-.31,0-.31.3v6.86a1.12,1.12,0,0,1-.73,1.09,1.1,1.1,0,0,1-1.45-.71l-.06-.16Z" style="fill:#fff;opacity:0.7000000000000001"></path><path d="M182.56,343.25a2.58,2.58,0,0,1,0-5.15,2.58,2.58,0,0,1,0,5.15Z" style="fill:#fff;opacity:0.7000000000000001"></path></g><g id="freepik--1jhwpttif--inject-9"><path d="M307.88,186.84a4.38,4.38,0,0,1,.28-1,3.18,3.18,0,0,1,2.93-2c2,0,3.92,0,5.88,0a3.29,3.29,0,0,1,3.19,3,5.78,5.78,0,0,1,0,.58v7.65a1.12,1.12,0,1,1-2.24.08v-6.87c0-.37,0-.32-.32-.33h-.09c-.14,0-.18.05-.17.18v19.74a1.51,1.51,0,0,1-.86,1.45.53.53,0,0,1-.3.07,4.64,4.64,0,0,0-.53,0,1.16,1.16,0,0,1-1-.51,1.49,1.49,0,0,1-.32-1V196.51c0-.13,0-.18-.17-.18-.44,0-.44,0-.44.43v11.12a1.52,1.52,0,0,1-.87,1.44.15.15,0,0,1-.07,0,2.11,2.11,0,0,1-1.42-.15,1.45,1.45,0,0,1-.67-1.27V188.22c0-.28,0-.28-.28-.28s-.3,0-.3.31v6.86a1.15,1.15,0,0,1-.73,1.08,1.1,1.1,0,0,1-1.45-.71l-.06-.15Z" style="fill:#0BBF64"></path><path d="M314,183.2a2.58,2.58,0,1,1,0-5.15,2.61,2.61,0,0,1,2.57,2.57A2.57,2.57,0,0,1,314,183.2Z" style="fill:#0BBF64"></path></g><g id="freepik--1jhwpttif--inject-9"><path d="M307.88,186.84a4.38,4.38,0,0,1,.28-1,3.18,3.18,0,0,1,2.93-2c2,0,3.92,0,5.88,0a3.29,3.29,0,0,1,3.19,3,5.78,5.78,0,0,1,0,.58v7.65a1.12,1.12,0,1,1-2.24.08v-6.87c0-.37,0-.32-.32-.33h-.09c-.14,0-.18.05-.17.18v19.74a1.51,1.51,0,0,1-.86,1.45.53.53,0,0,1-.3.07,4.64,4.64,0,0,0-.53,0,1.16,1.16,0,0,1-1-.51,1.49,1.49,0,0,1-.32-1V196.51c0-.13,0-.18-.17-.18-.44,0-.44,0-.44.43v11.12a1.52,1.52,0,0,1-.87,1.44.15.15,0,0,1-.07,0,2.11,2.11,0,0,1-1.42-.15,1.45,1.45,0,0,1-.67-1.27V188.22c0-.28,0-.28-.28-.28s-.3,0-.3.31v6.86a1.15,1.15,0,0,1-.73,1.08,1.1,1.1,0,0,1-1.45-.71l-.06-.15Z" style="fill:#fff;opacity:0.7000000000000001"></path><path d="M314,183.2a2.58,2.58,0,1,1,0-5.15,2.61,2.61,0,0,1,2.57,2.57A2.57,2.57,0,0,1,314,183.2Z" style="fill:#fff;opacity:0.7000000000000001"></path></g></g></svg>
